:version 1.10
:name ASF
:units
  mass 1
  length 1
  angle deg
:documentation
  ASF file generated by Kaydara
:root
  axis xyz
  order  tx ty tz rx ry rz
  position 0 0 0
  orientation 0 0 0
:bonedata
  begin
    id 1
    name RightUpLegDummy
    direction -0.65628 -0.754516 0.00165102
    length 4.76918
    axis 0 0 0 xyz
  end
  begin
    id 2
    name RightUpLeg
    direction -0.145584 -0.923362 0.355256
    length 17.9961
    axis -24.7611 -13.1006 1.78531 xyz
    dof rx ry rz
  end
  begin
    id 3
    name RightLeg
    direction 0.263379 0.172355 -0.949171
    length 13.3386
    axis 89.6202 -21.1929 12.3855 xyz
    dof rx ry rz
  end
  begin
    id 4
    name RightFoot
    direction 0.224283 -0.968777 -0.105675
    length 5.86697
    axis 56.995 -39.6905 17.3365 xyz
    dof rx ry rz
  end
  begin
    id 5
    name RightToes
    direction -0.0806345 -0.9037 0.420506
    length 4.75197
    axis 146.825 -39.7828 17.6019 xyz
    dof rx ry rz
  end
  begin
    id 6
    name SpineDummy
    direction -3.39852e-014 1 9.33296e-014
    length 8.13779
    axis 0 0 0 xyz
  end
  begin
    id 7
    name Spine
    direction -0.156609 0.733703 0.661176
    length 7.14978
    axis 41.2365 5.68757 17.0844 xyz
    dof rx ry rz
  end
  begin
    id 8
    name Spine1
    direction 0 0 0
    length 0
    axis 42.8809 47.8308 -3.36039 xyz
    dof rx ry rz
  end
  begin
    id 9
    name HEadDummy
    direction 0.546431 0.701947 0.456819
    length 3.55512
    axis 42.8809 47.8308 -3.36039 xyz
  end
  begin
    id 10
    name HEad
    direction 0.23444 0.828559 0.508457
    length 7.35827
    axis 51.1864 49.2662 27.4903 xyz
    dof rx ry rz
  end
  begin
    id 11
    name LeftShoulder1Dummy
    direction 0.431183 0.475873 -0.766568
    length 2.49352
    axis 42.8809 47.8308 -3.36039 xyz
  end
  begin
    id 12
    name LeftShoulder1
    direction 0.268187 -0.383402 -0.883786
    length 4.48604
    axis -119.517 0.106469 35.1736 xyz
    dof rx ry rz
  end
  begin
    id 13
    name LeftArm
    direction 0.380567 -0.703221 -0.600541
    length 10.1142
    axis -5.41825 36.2925 7.8293 xyz
    dof rx ry rz
  end
  begin
    id 14
    name LeftForeArm
    direction 0.541071 -0.732356 -0.413396
    length 9.39839
    axis 4.65387 33.7604 7.81644 xyz
    dof rx ry rz
  end
  begin
    id 15
    name LeftHand
    direction 0.847511 -0.389379 -0.360707
    length 3.66142
    axis 7.65593 21.1436 -24.6758 xyz
    dof rx ry rz
  end
  begin
    id 16
    name RightShoulderDummy
    direction -0.692546 0.541855 0.476208
    length 2.49352
    axis 42.8809 47.8308 -3.36039 xyz
  end
  begin
    id 17
    name RightShoulder
    direction -0.870808 -0.316653 0.376065
    length 4.48602
    axis 141.571 51.133 -100.254 xyz
    dof rx ry rz
  end
  begin
    id 18
    name RightArm
    direction 0.366897 -0.87275 0.322015
    length 10.1142
    axis 92.3258 71.2036 138.917 xyz
    dof rx ry rz
  end
  begin
    id 19
    name RightForeArm
    direction 0.702487 -0.694568 0.155197
    length 9.39835
    axis 153.863 41.5092 -176.604 xyz
    dof rx ry rz
  end
  begin
    id 20
    name RightHand
    direction 0.79502 -0.601276 0.0800636
    length 3.66142
    axis 154.247 4.59222 142.9 xyz
    dof rx ry rz
  end
  begin
    id 21
    name LeftUpLegDummy
    direction 0.65628 -0.754516 0.00165102
    length 4.76919
    axis 0 0 0 xyz
  end
  begin
    id 22
    name LeftUpLeg
    direction -0.1277 -0.689368 0.713067
    length 17.9961
    axis -48.3385 -17.8675 0.791927 xyz
    dof rx ry rz
  end
  begin
    id 23
    name LeftLeg
    direction 0.109849 -0.991246 -0.0732378
    length 13.3386
    axis -2.05791 -7.30784 1.72042 xyz
    dof rx ry rz
  end
  begin
    id 24
    name LeftFoot
    direction 0.0448355 -0.272614 0.961078
    length 5.86697
    axis -18.7733 -7.89606 10.2113 xyz
    dof rx ry rz
  end
  begin
    id 25
    name LeftToes
    direction -0.18506 0.293668 0.937823
    length 4.75197
    axis 71.2267 -7.89606 10.2113 xyz
    dof rx ry rz
  end
:hierarchy
  begin
    root RightUpLegDummy SpineDummy LeftUpLegDummy
    RightUpLegDummy RightUpLeg
    RightUpLeg RightLeg
    RightLeg RightFoot
    RightFoot RightToes
    SpineDummy Spine
    Spine Spine1
    Spine1 HEadDummy LeftShoulder1Dummy RightShoulderDummy
    HEadDummy HEad
    LeftShoulder1Dummy LeftShoulder1
    LeftShoulder1 LeftArm
    LeftArm LeftForeArm
    LeftForeArm LeftHand
    RightShoulderDummy RightShoulder
    RightShoulder RightArm
    RightArm RightForeArm
    RightForeArm RightHand
    LeftUpLegDummy LeftUpLeg
    LeftUpLeg LeftLeg
    LeftLeg LeftFoot
    LeftFoot LeftToes
  end

:SAMPLES-PER-SECOND 30
:FULLY-SPECIFIED
:DEGREES
387
root  -9.45361 37.5692 -13.3116 -5.41574 29.2686 179.353
RightUpLeg  -58.2154 18.1246 -32.7804
RightLeg  -69.2828 -24.7547 17.2024
RightFoot  6.41184 1.07817 -5.50205
RightToes  -1.27222e-014 -6.36111e-015 6.36111e-015
Spine  -35.5347 -6.23939 9.01549
Spine1  -33.9857 -15.1432 43.4811
HEad  40.2153 -23.6921 -34.5553
LeftShoulder1  6.36111e-015 -1.33558e-015 6.49777e-015
LeftArm  -79.1879 -29.8764 100.246
LeftForeArm  71.5564 -54.7096 -47.5136
LeftHand  11.5801 18.9536 14.7079
RightShoulder  -4.77083e-015 -6.36111e-015 -3.18055e-015
RightArm  -8.84726 31.684 -62.1552
RightForeArm  -63.252 3.44789 -25.3209
RightHand  2.35902 -5.65819 -7.61157
LeftUpLeg  72.6699 20.1669 23.4359
LeftLeg  31.8409 12.9904 14.2567
LeftFoot  -1.4088 2.13188 -7.46865
LeftToes  1.27222e-014 1.09105e-011 6.96064e-012
388
root  -10.0304 37.4178 -11.7806 -1.79407 2.72198 -178.553
RightUpLeg  -59.2097 16.8149 -31.1928
RightLeg  -67.5391 -24.691 15.9341
RightFoot  4.93872 1.18079 -5.08401
RightToes  -1.27222e-014 -6.36111e-015 6.36111e-015
Spine  -33.8997 -5.96266 9.91474
Spine1  -36.4822 -16.0156 40.9675
HEad  39.183 -24.0475 -35.4031
LeftShoulder1  6.36111e-015 -1.33558e-015 6.49777e-015
LeftArm  -78.6193 -28.8725 100.973
LeftForeArm  68.5716 -54.585 -44.9368
LeftHand  11.6927 19.0972 14.8227
RightShoulder  -4.77083e-015 -6.36111e-015 -3.18055e-015
RightArm  -13.0158 33.8811 -65.3965
RightForeArm  -60.755 4.06549 -26.2941
RightHand  2.11025 -4.35278 -7.98119
LeftUpLeg  73.2668 19.2138 24.0071
LeftLeg  28.4355 14.1668 13.4025
LeftFoot  -0.777008 2.3193 -7.97068
LeftToes  1.27222e-014 1.09105e-011 6.96064e-012
389
root  -9.83155 37.3781 -10.2398 1.12149 -23.3401 -177.397
RightUpLeg  -60.2761 15.6009 -29.4322
RightLeg  -67.0649 -24.6586 15.5846
RightFoot  4.49061 1.34143 -5.22086
RightToes  -1.27222e-014 -6.36111e-015 6.36111e-015
Spine  -32.4975 -6.50521 9.85873
Spine1  -39.8305 -16.5834 39.7599
HEad  37.4772 -23.5377 -36.0915
LeftShoulder1  6.36111e-015 -1.33558e-015 6.49777e-015
LeftArm  -80.4448 -26.5947 99.6289
LeftForeArm  69.0151 -53.521 -45.3277
LeftHand  12.3525 19.8616 15.6034
RightShoulder  -4.77083e-015 -6.36111e-015 -3.18055e-015
RightArm  -15.2119 33.7377 -68.9818
RightForeArm  -59.4288 6.22799 -29.9041
RightHand  2.0183 -3.35272 -8.90602
LeftUpLeg  73.9019 18.0823 24.3509
LeftLeg  25.0341 15.4748 12.5538
LeftFoot  0.297514 2.56692 -8.53914
LeftToes  1.27222e-014 1.09105e-011 6.96064e-012
390
root  -8.98124 37.3625 -9.00827 4.16022 -48.6703 -176.683
RightUpLeg  -61.4442 15.0635 -28.2668
RightLeg  -67.1688 -24.7153 15.7242
RightFoot  5.10224 1.19074 -5.17495
RightToes  -1.27222e-014 -6.36111e-015 6.36111e-015
Spine  -32.2447 -8.10849 8.51412
Spine1  -43.1826 -16.5004 41.4399
HEad  34.9323 -22.1387 -36.3514
LeftShoulder1  6.36111e-015 -1.33558e-015 6.49777e-015
LeftArm  -82.0079 -25.9604 98.4054
LeftForeArm  68.834 -52.5581 -43.1733
LeftHand  12.9003 20.0782 16.9398
RightShoulder  -4.77083e-015 -6.36111e-015 -3.18055e-015
RightArm  -18.2451 32.8674 -73.8295
RightForeArm  -58.6773 7.97466 -32.8964
RightHand  2.63504 -4.23564 -11.1929
LeftUpLeg  74.5092 17.1404 24.476
LeftLeg  20.6091 16.1348 10.7795
LeftFoot  2.74661 2.49924 -7.73688
LeftToes  1.27222e-014 1.09105e-011 6.96064e-012
391
root  -7.71676 37.3409 -8.33067 9.11237 -72.7472 -177.91
RightUpLeg  -61.7118 15.405 -28.1794
RightLeg  -67.5168 -24.5469 15.7209
RightFoot  5.41415 1.04354 -5.00998
RightToes  -1.27222e-014 -6.36111e-015 6.36111e-015
Spine  -33.8057 -10.3259 6.72095
Spine1  -45.2817 -15.9224 45.5077
HEad  31.9119 -19.9345 -36.1031
LeftShoulder1  6.36111e-015 -1.33558e-015 6.49777e-015
LeftArm  -82.3173 -25.1143 98.6633
LeftForeArm  67.6632 -52.2443 -40.8291
LeftHand  12.8783 19.7694 17.415
RightShoulder  -4.77083e-015 -6.36111e-015 -3.18055e-015
RightArm  -21.5301 30.7936 -77.1539
RightForeArm  -56.6785 10.0325 -35.9692
RightHand  3.4323 -5.43724 -13.7289
LeftUpLeg  74.8152 16.2911 24.072
LeftLeg  15.1664 15.5407 8.05338
LeftFoot  5.22599 1.95135 -5.64496
LeftToes  1.27222e-014 1.09105e-011 6.96064e-012
392
root  -6.35182 37.3556 -8.34497 174.547 -84.4009 20.3167
RightUpLeg  -60.4174 16.4788 -29.3615
RightLeg  -68.6455 -24.3155 16.1477
RightFoot  5.49183 1.13073 -5.21992
RightToes  -1.27222e-014 -6.36111e-015 6.36111e-015
Spine  -37.2772 -12.3801 5.3538
Spine1  -45.3523 -15.5035 49.5975
HEad  28.9742 -17.9083 -35.9331
LeftShoulder1  6.36111e-015 -1.33558e-015 6.49777e-015
LeftArm  -83.5085 -23.7947 98.3227
LeftForeArm  70.2854 -52.3878 -42.5153
LeftHand  12.7665 19.5343 17.4843
RightShoulder  -4.77083e-015 -6.36111e-015 -3.18055e-015
RightArm  -26.0131 28.8823 -79.9648
RightForeArm  -51.6963 12.2197 -37.348
RightHand  4.23504 -5.69902 -17.5252
LeftUpLeg  74.4938 15.1679 23.5355
LeftLeg  9.64505 13.5866 5.1409
LeftFoot  8.09634 1.43879 -3.87784
LeftToes  1.27222e-014 1.09105e-011 6.96064e-012
393
root  -5.26144 37.4094 -8.96345 -172.273 -63.2213 10.2843
RightUpLeg  -57.6493 18.0547 -32.1638
RightLeg  -70.4785 -24.0037 16.9733
RightFoot  5.8353 1.08994 -5.2837
RightToes  -1.27222e-014 -6.36111e-015 6.36111e-015
Spine  -41.306 -13.9161 4.33391
Spine1  -44.1508 -15.4336 52.3692
HEad  26.4547 -16.8171 -36.0359
LeftShoulder1  6.36111e-015 -1.33558e-015 6.49777e-015
LeftArm  -84.7088 -23.7347 97.9492
LeftForeArm  73.5585 -52.9911 -45.2327
LeftHand  12.9725 19.2641 18.619
RightShoulder  -4.77083e-015 -6.36111e-015 -3.18055e-015
RightArm  -30.6906 27.0592 -81.8818
RightForeArm  -45.4921 14.6208 -37.4621
RightHand  5.16385 -6.24899 -21.253
LeftUpLeg  73.9333 13.996 23.4848
LeftLeg  3.70902 10.9766 2.42629
LeftFoot  11.222 1.08284 -2.72905
LeftToes  1.27222e-014 1.09105e-011 6.96064e-012
394
root  -4.68809 37.4493 -9.92909 -169.267 -43.5203 9.45911
RightUpLeg  -53.2928 19.6054 -36.3366
RightLeg  -72.5984 -23.527 17.8263
RightFoot  6.39411 0.875339 -5.09233
RightToes  -1.27222e-014 -6.36111e-015 6.36111e-015
Spine  -43.8808 -15.7231 2.81365
Spine1  -43.5491 -15.0959 55.1554
HEad  24.3342 -16.2588 -35.5714
LeftShoulder1  6.36111e-015 -1.33558e-015 6.49777e-015
LeftArm  -85.7454 -25.1482 98.4458
LeftForeArm  72.2305 -52.5847 -44.398
LeftHand  13.5436 19.2612 20.3998
RightShoulder  -4.77083e-015 -6.36111e-015 -3.18055e-015
RightArm  -36.6385 26.0014 -81.8973
RightForeArm  -36.5296 18.2476 -36.363
RightHand  5.95843 -6.62535 -24.4049
LeftUpLeg  73.3246 12.7184 24.4187
LeftLeg  -3.094 8.57869 0.0680596
LeftFoot  13.0242 0.459293 -1.15572
LeftToes  1.27222e-014 1.09105e-011 6.96064e-012
395
root  -4.75824 37.4454 -11.067 -167.939 -25.4844 9.73106
RightUpLeg  -47.5813 20.6489 -40.3887
RightLeg  -74.2905 -23.3044 18.8231
RightFoot  7.06957 0.88241 -5.38939
RightToes  -1.27222e-014 -6.36111e-015 6.36111e-015
Spine  -45.0786 -18.1252 0.543736
Spine1  -43.7098 -14.4845 58.1721
HEad  22.3531 -16.6367 -33.7925
LeftShoulder1  6.36111e-015 -1.33558e-015 6.49777e-015
LeftArm  -87.5758 -25.1239 97.4154
LeftForeArm  67.6963 -51.996 -41.4391
LeftHand  13.9824 19.6078 21.0979
RightShoulder  -4.77083e-015 -6.36111e-015 -3.18055e-015
RightArm  -40.102 25.1703 -81.2491
RightForeArm  -28.9081 22.3929 -35.4267
RightHand  7.4686 -7.22737 -30.1592
LeftUpLeg  71.5137 10.443 26.6887
LeftLeg  -9.32679 6.47439 -1.61737
LeftFoot  14.451 -0.108948 0.166129
LeftToes  1.27222e-014 1.09105e-011 6.96064e-012
396
root  -5.54477 37.4203 -12.02 -167.173 -8.97931 10.7282
RightUpLeg  -41.3464 20.9625 -43.4931
RightLeg  -74.3729 -23.7318 19.5888
RightFoot  7.66656 1.04796 -5.95399
RightToes  -1.27222e-014 -6.36111e-015 6.36111e-015
Spine  -45.5296 -20.3825 -1.64499
Spine1  -43.6236 -14.2705 59.9731
HEad  19.8916 -18.4502 -30.6707
LeftShoulder1  6.36111e-015 -1.33558e-015 6.49777e-015
LeftArm  -90.3001 -24.8131 94.6484
LeftForeArm  60.1234 -51.6002 -34.658
LeftHand  14.0724 19.7323 21.1403
RightShoulder  -4.77083e-015 -6.36111e-015 -3.18055e-015
RightArm  -48.1859 28.91 -84.7866
RightForeArm  -14.8195 21.8979 -25.1105
RightHand  9.59789 -7.35918 -38.9372
LeftUpLeg  67.5224 6.7127 29.8092
LeftLeg  -13.8236 5.77289 -2.671
LeftFoot  16.4794 -0.388599 0.749057
LeftToes  1.27222e-014 1.09105e-011 6.96064e-012
397
root  -6.78722 37.367 -12.3903 -166.714 5.63257 11.9178
RightUpLeg  -34.399 20.8701 -46.5843
RightLeg  -72.6483 -24.5427 19.4353
RightFoot  7.95892 1.30761 -6.56951
RightToes  -1.27222e-014 -6.36111e-015 6.36111e-015
Spine  -44.1416 -23.1308 -3.61795
Spine1  -43.8205 -14.4231 62.1186
HEad  16.1276 -19.947 -26.1658
LeftShoulder1  6.36111e-015 -1.33558e-015 6.49777e-015
LeftArm  -93.8582 -24.647 90.715
LeftForeArm  49.2701 -49.8488 -24.0393
LeftHand  14.6674 19.974 22.4666
RightShoulder  -4.77083e-015 -6.36111e-015 -3.18055e-015
RightArm  -54.5875 32.4058 -89.8193
RightForeArm  -0.863604 16.2752 -12.9507
RightHand  11.6558 -7.63304 -46.3552
LeftUpLeg  61.6957 2.12599 34.1008
LeftLeg  -17.3382 7.556 -3.83372
LeftFoot  17.4054 -0.706044 1.40126
LeftToes  1.27222e-014 1.09105e-011 6.96064e-012
398
root  -8.27113 36.9827 -12.1837 -166.864 18.1331 12.8811
RightUpLeg  -25.7591 21.5755 -49.527
RightLeg  -70.4258 -25.5442 19.1557
RightFoot  7.97642 2.17609 -8.25247
RightToes  -1.27222e-014 -6.36111e-015 6.36111e-015
Spine  -40.7098 -28.3751 -7.35982
Spine1  -44.5469 -14.6582 67.1451
HEad  11.498 -19.5352 -20.4875
LeftShoulder1  6.36111e-015 -1.33558e-015 6.49777e-015
LeftArm  -98.9679 -21.9863 76.4362
LeftForeArm  44.6953 -53.6577 -20.2572
LeftHand  15.4317 20.2128 24.2469
RightShoulder  -4.77083e-015 -6.36111e-015 -3.18055e-015
RightArm  -53.9194 47.1568 -100.196
RightForeArm  6.42194 -7.29277 -9.50291
RightHand  13.5503 -8.46609 -51.1825
LeftUpLeg  53.4938 -1.91454 40.8148
LeftLeg  -20.4081 10.0893 -5.25262
LeftFoot  17.4866 -0.377004 0.698801
LeftToes  1.27222e-014 1.09105e-011 6.96064e-012
399
root  -9.80627 36.0879 -11.3842 -166.82 29.1377 14.0075
RightUpLeg  -15.979 23.5752 -50.2682
RightLeg  -68.7068 -27.0255 19.8435
RightFoot  8.20504 3.24029 -10.3898
RightToes  -1.27222e-014 -6.36111e-015 6.36111e-015
Spine  -36.9853 -35.1976 -13.6865
Spine1  -44.0589 -15.0842 73.8087
HEad  8.1117 -18.7101 -15.5265
LeftShoulder1  6.36111e-015 -1.33558e-015 6.49777e-015
LeftArm  -99.5505 -20.4173 57.8292
LeftForeArm  29.4955 -62.215 -11.1624
LeftHand  15.1015 19.7669 24.1244
RightShoulder  -4.77083e-015 -6.36111e-015 -3.18055e-015
RightArm  -49.1114 62.3001 -104.778
RightForeArm  5.01515 -31.2246 -8.29327
RightHand  15.9677 -10.1298 -55.1984
LeftUpLeg  42.3933 -4.36616 48.3441
LeftLeg  -24.0109 12.8904 -7.22838
LeftFoot  17.3018 0.45901 -1.08084
LeftToes  1.27222e-014 1.09105e-011 6.96064e-012
400
root  -10.9405 35.0494 -10.3225 -165.487 39.694 15.6801
RightUpLeg  -6.14058 25.7524 -48.6785
RightLeg  -68.0378 -27.5419 19.9966
RightFoot  9.00792 3.74395 -11.5933
RightToes  -1.27222e-014 -6.36111e-015 6.36111e-015
Spine  -35.3039 -39.7675 -19.0782
Spine1  -42.0591 -15.0125 80.0641
HEad  7.15119 -19.2605 -13.3863
LeftShoulder1  6.36111e-015 -1.33558e-015 6.49777e-015
LeftArm  -91.1876 -19.6051 47.2401
LeftForeArm  -2.36843 -57.6609 9.6767
LeftHand  15.9653 20.8357 24.6141
RightShoulder  -4.77083e-015 -6.36111e-015 -3.18055e-015
RightArm  -39.5397 61.4398 -90.1033
RightForeArm  4.08533 -35.6993 -6.07606
RightHand  18.9423 -12.264 -59.1215
LeftUpLeg  31.0844 -4.77895 54.3844
LeftLeg  -30.3501 14.5942 -9.82102
LeftFoot  14.8786 0.129026 -0.376504
LeftToes  1.27222e-014 1.09105e-011 6.96064e-012
